External Loads File
version=1
nRows=31
nColumns=13
Range=5.000000e-03-10 seconds
endheader
time 	forceRightX 	forceRightY 	forceRightZ 	pointRightX 	pointRightY 	pointRightZ 	forceLeftX 	forceLeftY 	forceLeftZ 	pointLeftX 	pointLeftY 	pointLeftZ 		
7.505000 24.463300 -24.986197 -0.000000 0.064672 0.288758 -0.121440 -287.975467 596.353491 -0.000000 0.329555 0.323181 -0.366150
7.510000 17.008456 -29.728413 -0.000000 0.066777 0.297999 -0.121665 -284.831713 607.548967 -0.000000 0.328913 0.312388 -0.366229
7.515000 8.657613 -33.780496 -0.000000 0.068592 0.307243 -0.122595 -277.837605 614.583388 -0.000000 0.327693 0.301543 -0.366136
7.520000 -0.457394 -37.034863 -0.000000 0.071787 0.316598 -0.122607 -267.064227 618.552026 -0.000000 0.326046 0.290776 -0.366169
7.525000 -10.006264 -39.427450 -0.000000 0.075511 0.325941 -0.122680 -253.297500 620.236855 -0.000000 0.323737 0.280342 -0.365771
7.530000 -19.632288 -40.950703 -0.000000 0.079644 0.335278 -0.122882 -235.592782 621.075124 -0.000000 0.320747 0.269803 -0.365655
7.535000 -28.734155 -41.733914 -0.000000 0.084223 0.344533 -0.122938 -215.468712 621.334312 -0.000000 0.317203 0.259624 -0.365582
7.540000 -38.230388 -40.697898 -0.000000 0.089422 0.353889 -0.123046 -171.205074 627.999046 -0.000000 0.313097 0.240569 -0.365619
7.545000 -43.441741 -42.020933 -0.000000 0.094696 0.363135 -0.123257 -167.149527 622.704249 -0.000000 0.308426 0.240088 -0.365582
7.550000 -47.960871 -42.725830 -0.000000 0.100554 0.372405 -0.123361 -145.679636 622.803734 -0.000000 0.303181 0.233574 -0.365535
7.555000 -51.371589 -43.434975 -0.000000 0.106698 0.381559 -0.123520 -114.793337 625.432243 -0.000000 0.297429 0.223647 -0.365415
7.560000 -53.608179 -44.863076 -0.000000 0.113267 0.390550 -0.123817 -81.220289 628.550716 -0.000000 0.291160 0.212926 -0.365327
7.565000 -54.869962 -47.576023 -0.000000 0.120210 0.399470 -0.124057 -50.373076 631.371792 -0.000000 0.284405 0.204033 -0.365137
7.570000 -55.809694 -51.430325 -0.000000 0.127447 0.408129 -0.124462 -21.417087 634.200936 -0.000000 0.277282 0.196203 -0.364939
7.575000 -56.972995 -56.116470 -0.000000 0.135088 0.416478 -0.124965 6.425448 636.982399 -0.000000 0.269767 0.189107 -0.364779
7.580000 -58.681613 -61.263337 -0.000000 0.143012 0.424362 -0.125437 33.342932 639.364124 -0.000000 0.261819 0.182415 -0.364642
7.585000 -61.060374 -66.435803 -0.000000 0.151283 0.432086 -0.125969 59.467911 640.811687 -0.000000 0.253628 0.176079 -0.364471
7.590000 -63.954099 -71.250042 -0.000000 0.159733 0.439162 -0.126522 83.950407 640.849349 -0.000000 0.245085 0.170337 -0.364387
7.595000 -67.173811 -75.165740 -0.000000 0.168543 0.445550 -0.126787 107.066670 638.997105 -0.000000 0.236273 0.165275 -0.364332
7.600000 -70.311336 -77.705926 -0.000000 0.177262 0.451454 -0.127279 128.019591 635.009676 -0.000000 0.227274 0.160733 -0.364286
7.605000 -73.126434 -78.207993 -0.000000 0.186369 0.456769 -0.127529 147.768689 628.313845 -0.000000 0.218092 0.156966 -0.364108
7.610000 -75.127023 -76.300998 -0.000000 0.195485 0.461230 -0.127839 165.203907 618.676065 -0.000000 0.208960 0.153884 -0.364429
7.615000 -76.205448 -71.417498 -0.000000 0.204696 0.464954 -0.128032 181.986619 605.106220 -0.000000 0.199269 0.151422 -0.363784
7.620000 -75.982517 -63.581969 -0.000000 0.213832 0.467932 -0.128264 196.685512 587.427688 -0.000000 0.189553 0.149693 -0.363772
7.625000 -74.217439 -53.209043 -0.000000 0.223119 0.470127 -0.128279 207.121026 565.981254 -0.000000 0.180100 0.138774 -0.363527
7.630000 -71.669236 -39.790616 -0.000000 0.232496 0.471586 -0.128108 220.005689 537.870550 -0.000000 0.170501 0.148148 -0.363389
7.635000 -67.941729 -24.801394 -0.000000 0.241764 0.472265 -0.127941 228.045852 505.459386 -0.000000 0.161030 0.148501 -0.363193
7.640000 -63.583625 -8.541277 -0.000000 0.250788 0.472207 -0.127746 232.925272 468.063753 -0.000000 0.151692 0.149868 -0.363012
7.645000 -58.953400 8.313033 -0.000000 0.259134 0.471604 -0.127583 232.845506 426.912183 -0.000000 0.142833 0.151087 -0.363265
7.650000 -54.344625 25.671212 -0.000000 0.267340 0.470072 -0.127203 229.575062 381.865829 -0.000000 0.134124 0.153532 -0.362935
7.655000 -50.263056 42.696490 -0.000000 0.275208 0.467736 -0.126631 219.453024 336.398732 -0.000000 0.125933 0.150155 -0.362080
